<mxfile host="app.diagrams.net" modified="2024-06-05T07:57:38.373Z" agent="Mozilla/5.0 (Macintosh; Intel Mac OS X 10_15_7) AppleWebKit/537.36 (KHTML, like Gecko) Chrome/125.0.0.0 Safari/537.36" version="24.4.13" etag="gbRijLmZ7gKWMoqDgBIQ" type="github">
  <diagram name="Page-1" id="uGV7JQ5Iald1nciqVjCi">
    <mxGraphModel>
      <root>
        <mxCell id="0" />
        <mxCell id="1" parent="0" />
      </root>
    </mxGraphModel>
  </diagram>
</mxfile>
